<svg xmlns="http://www.w3.org/2000/svg" data-name="Ebene 2" viewBox="0 0 48 60" x="0px" y="0px"><path d="M25.64,20.5c-.34-.59-.96-.95-1.64-.95s-1.3,.35-1.64,.95l-11.1,19.1c-.34,.59-.35,1.3,0,1.9,.34,.59,.96,.95,1.64,.95h22.2c.69,0,1.3-.36,1.64-.95,.34-.6,.34-1.3,0-1.9l-11.1-19.1Zm-12.56,19.95l10.92-18.79,10.92,18.79H13.08Z"/><path d="M23.01,29.16v5c0,.55,.45,1,1,1s1-.45,1-1v-5c0-.55-.45-1-1-1s-1,.45-1,1Z"/><circle cx="24.01" cy="37.44" r="1"/><path d="M42.44,20.95c-.28-1.42-1.62-2.4-3.07-2.4h-2.72c-.31-1.37-.84-2.65-1.58-3.83l2-2.01c.58-.57,.89-1.32,.89-2.12s-.31-1.55-.88-2.11c-1.13-1.15-3.11-1.14-4.24-.01l-2.01,2.01c-1.18-.74-2.46-1.27-3.83-1.58v-2.22c0-1.45-.97-2.79-2.4-3.07-1.91-.38-3.6,1.09-3.6,2.94v2.35c-1.37,.31-2.65,.84-3.83,1.58l-2.01-2c-1.13-1.15-3.12-1.14-4.23-.01-.71,.7-1.02,1.67-.84,2.67,.11,.62,.44,1.18,.89,1.63l1.95,1.95c-.74,1.18-1.27,2.46-1.58,3.83h-2.72c-1.45,0-2.79,.97-3.07,2.4-.38,1.91,1.09,3.6,2.94,3.6h3.7c.62,0,1.08-.56,.97-1.17,0,0,0-.02,0-.03-.09-.47-.49-.8-.97-.8h-3.7c-.55,0-1-.45-1-1s.45-1,1-1h4.52l.14-.84c.27-1.66,.9-3.18,1.87-4.53l.5-.68-3.2-3.21c-.19-.19-.29-.44-.29-.7s.1-.51,.3-.71c.38-.38,1.02-.38,1.4,.01l3.21,3.19,.68-.5c1.35-.97,2.87-1.6,4.53-1.87l.84-.14V6.56c0-.55,.45-1,1-1s1,.45,1,1v4.02l.84,.14c1.66,.27,3.18,.9,4.53,1.87l.68,.5,3.21-3.2c.38-.38,1.01-.39,1.41,.01,.19,.19,.29,.44,.29,.7s-.1,.51-.3,.7l-3.19,3.21,.5,.68c.97,1.35,1.6,2.87,1.87,4.53l.14,.84h4.52c.55,0,1,.45,1,1s-.45,1-1,1h-3.7c-.48,0-.88,.34-.97,.8,0,0,0,.02,0,.03-.11,.61,.35,1.17,.97,1.17h3.7c1.85,0,3.32-1.69,2.94-3.6Z"/><path d="M29.65,24.56h0c.43,0,.81-.28,.95-.69,.26-.73,.39-1.51,.39-2.31,0-4.32-3.93-7.74-8.41-6.86-2.76,.54-4.97,2.78-5.47,5.55-.23,1.27-.12,2.51,.27,3.62,.14,.41,.52,.69,.96,.69h0c.7,0,1.15-.7,.93-1.37-.27-.77-.35-1.63-.19-2.53,.33-1.95,1.86-3.55,3.79-3.98,3.25-.72,6.13,1.74,6.13,4.87,0,.57-.1,1.12-.27,1.63-.23,.67,.22,1.37,.92,1.37Z"/></svg>